<?xml version="1.0" standalone="no"?>
<!DOCTYPE svg PUBLIC "-//W3C//DTD SVG 20010904//EN"
 "http://www.w3.org/TR/2001/REC-SVG-20010904/DTD/svg10.dtd">
<svg version="1.0" xmlns="http://www.w3.org/2000/svg"
 width="400.000000pt" height="400.000000pt" viewBox="0 0 400.000000 400.000000"
 preserveAspectRatio="xMidYMid meet">
<metadata>
Created by potrace 1.14, written by Peter Selinger 2001-2017
</metadata>
<g transform="translate(0.000000,400.000000) scale(0.100000,-0.100000)"
fill="#000000" stroke="none">
<path d="M1299 2766 c-2 -2 -31 -6 -64 -9 -105 -10 -329 -37 -356 -43 -31 -6
-63 -38 -75 -74 -5 -14 -9 -124 -9 -245 l0 -220 -40 -5 -40 -5 -1 -93 c0 -51
3 -95 7 -98 4 -2 21 -6 39 -8 17 -2 33 -5 35 -8 3 -2 5 -114 5 -249 1 -135 5
-262 10 -283 14 -62 48 -89 138 -109 l78 -18 -4 -34 -4 -35 178 0 c99 0 605
-1 1126 -2 521 -1 950 1 954 5 26 25 4 49 -153 173 -89 71 -163 135 -163 142
0 8 21 12 70 12 l70 0 1 98 c2 193 0 274 -6 280 -3 3 -37 6 -75 7 l-70 0 -1
48 c-1 26 -2 53 -3 60 -1 6 1 22 6 35 4 13 8 98 9 189 0 123 4 169 13 179 10
9 14 52 15 149 l2 136 -33 -17 c-26 -14 -61 -17 -163 -18 l-130 -1 -3 -72 -3
-71 -127 3 c-70 1 -132 3 -138 4 -7 1 -9 30 -6 86 5 91 1 98 -42 69 -20 -12
-49 -15 -153 -12 l-128 3 -3 -72 -3 -73 -129 0 -130 0 0 90 c0 50 -2 90 -5 90
-3 0 -17 -7 -31 -16 -38 -26 -256 -15 -304 15 -26 15 -52 21 -96 21 -33 0 -63
-2 -65 -4z"/>
</g>
</svg>
